<svg width="16" height="19" viewBox="0 0 16 19" fill="none" xmlns="http://www.w3.org/2000/svg">
<path d="M13.469 11.23C13.1198 10.8227 12.6986 10.605 12.2521 10.605C11.8093 10.605 11.3845 10.8187 11.0208 11.2259L9.88315 12.4961C9.78954 12.4396 9.69593 12.3872 9.60593 12.3348C9.47632 12.2622 9.35391 12.1937 9.2495 12.1211C8.18382 11.363 7.21535 10.3751 6.28648 9.0969C5.83645 8.4598 5.53402 7.92351 5.31441 7.37915C5.60963 7.07673 5.88325 6.76222 6.14967 6.4598C6.25048 6.3469 6.35128 6.22996 6.45209 6.11706C7.20815 5.27028 7.20815 4.17351 6.45209 3.32673L5.46922 2.22593C5.35761 2.10093 5.2424 1.9719 5.13439 1.84286C4.91838 1.59286 4.69156 1.3348 4.45754 1.09286C4.10832 0.705767 3.69069 0.500122 3.25145 0.500122C2.81222 0.500122 2.38739 0.705767 2.02736 1.09286C2.02376 1.0969 2.02376 1.0969 2.02016 1.10093L0.796072 2.48399C0.335238 3.00012 0.0724188 3.62915 0.0148146 4.35899C-0.0715918 5.53641 0.238031 6.63319 0.475649 7.35093C1.05889 9.11302 1.93016 10.7461 3.22985 12.4961C4.80677 14.605 6.70411 16.2703 8.87147 17.4437C9.69953 17.8832 10.8048 18.4033 12.0397 18.4921C12.1153 18.4961 12.1945 18.5001 12.2665 18.5001C13.0982 18.5001 13.7966 18.1654 14.3439 17.5001C14.3475 17.4921 14.3547 17.488 14.3583 17.48C14.5455 17.2259 14.7615 16.9961 14.9883 16.7501C15.1431 16.5848 15.3015 16.4114 15.4564 16.23C15.8128 15.8146 16 15.3308 16 14.8348C16 14.3348 15.8092 13.855 15.4456 13.4517L13.469 11.23ZM14.7579 15.4759C14.7543 15.4759 14.7543 15.48 14.7579 15.4759C14.6175 15.6453 14.4735 15.7985 14.3187 15.9679C14.0847 16.2179 13.847 16.48 13.6238 16.7743C13.2602 17.2098 12.8318 17.4154 12.2701 17.4154C12.2161 17.4154 12.1585 17.4154 12.1045 17.4114C11.0352 17.3348 10.0416 16.8671 9.2963 16.4679C7.25855 15.363 5.46922 13.7945 3.98231 11.8066C2.75462 10.1493 1.93376 8.61706 1.39012 6.9719C1.05529 5.96786 0.932883 5.18561 0.986887 4.4477C1.02289 3.97593 1.1849 3.5848 1.48372 3.25012L2.71141 1.87512C2.88783 1.68964 3.07504 1.58883 3.25866 1.58883C3.48547 1.58883 3.66909 1.74206 3.78429 1.87109C3.78789 1.87512 3.79149 1.87915 3.79509 1.88319C4.01471 2.11303 4.22353 2.35093 4.44314 2.60496C4.55475 2.73399 4.66996 2.86303 4.78517 2.99609L5.76804 4.0969C6.14967 4.52432 6.14967 4.91948 5.76804 5.3469C5.66363 5.46383 5.56283 5.58077 5.45842 5.69367C5.156 6.04044 4.86797 6.36303 4.55475 6.67754C4.54755 6.68561 4.54035 6.68964 4.53675 6.6977C4.22713 7.04448 4.28473 7.38319 4.34954 7.61302C4.35314 7.62512 4.35674 7.63722 4.36034 7.64931C4.61596 8.34286 4.97598 8.99609 5.52322 9.77431L5.52682 9.77835C6.5205 11.1493 7.56817 12.2179 8.72386 13.0364C8.87147 13.1413 9.02268 13.2259 9.16669 13.3066C9.2963 13.3792 9.41871 13.4477 9.52312 13.5203C9.53752 13.5283 9.55192 13.5404 9.56632 13.5485C9.68873 13.6171 9.80394 13.6493 9.92275 13.6493C10.2216 13.6493 10.4088 13.4396 10.47 13.3711L11.7013 11.9921C11.8237 11.855 12.0181 11.6896 12.2449 11.6896C12.4681 11.6896 12.6518 11.8469 12.7634 11.984C12.767 11.988 12.767 11.988 12.7706 11.9921L14.7543 14.2138C15.1251 14.6251 15.1251 15.0485 14.7579 15.4759Z" fill="#949494"/>
<path d="M8.6352 4.84886C9.51995 5.01867 10.3237 5.49723 10.9653 6.2305C11.6069 6.96377 12.0222 7.88229 12.1742 8.89344C12.2114 9.14815 12.4038 9.32568 12.6233 9.32568C12.6504 9.32568 12.674 9.32182 12.701 9.31796C12.9509 9.27165 13.1164 9.0015 13.0758 8.71591C12.8935 7.4925 12.387 6.37716 11.6136 5.49337C10.8403 4.60959 9.8644 4.03069 8.79392 3.82228C8.54402 3.77597 8.31102 3.96508 8.26712 4.24681C8.22322 4.52854 8.38531 4.80255 8.6352 4.84886Z" fill="#949494"/>
<path d="M15.9699 8.56633C15.6693 6.55177 14.8386 4.71859 13.5621 3.25976C12.2856 1.80094 10.6816 0.851545 8.91886 0.508065C8.67235 0.457894 8.43934 0.65086 8.39544 0.932591C8.35492 1.21818 8.52039 1.48447 8.77028 1.53465C10.3439 1.83953 11.7791 2.69244 12.9205 3.99304C14.0619 5.29749 14.8048 6.9377 15.0716 8.73615C15.1087 8.99086 15.3012 9.16839 15.5207 9.16839C15.5477 9.16839 15.5714 9.16453 15.5984 9.16067C15.8449 9.11822 16.0138 8.84807 15.9699 8.56633Z" fill="#949494"/>
</svg>
