<svg width="16" height="19" viewBox="0 0 16 19" fill="none" xmlns="http://www.w3.org/2000/svg">
<path d="M7.93183 10.1991C7.9513 10.1991 7.97078 10.1991 7.99415 10.1991C8.00194 10.1991 8.00973 10.1991 8.01752 10.1991C8.02921 10.1991 8.04479 10.1991 8.05648 10.1991C9.19779 10.1804 10.121 9.79649 10.8026 9.06217C12.3023 7.44444 12.053 4.67119 12.0258 4.40653C11.9284 2.41978 10.9468 1.46927 10.1365 1.0257C9.53278 0.693952 8.82774 0.515032 8.04089 0.500122H8.01363C8.00973 0.500122 8.00194 0.500122 7.99805 0.500122H7.97468C7.5423 0.500122 6.69313 0.567217 5.87902 1.01079C5.06102 1.45436 4.06383 2.40487 3.96645 4.40653C3.93918 4.67119 3.68988 7.44444 5.18956 9.06217C5.86734 9.79649 6.79051 10.1804 7.93183 10.1991ZM5.00648 4.49972C5.00648 4.48854 5.01038 4.47736 5.01038 4.4699C5.13892 1.79729 7.12161 1.51027 7.97078 1.51027H7.98636C7.99415 1.51027 8.00584 1.51027 8.01752 1.51027C9.06924 1.53264 10.8572 1.94266 10.9779 4.4699C10.9779 4.48108 10.9779 4.49227 10.9818 4.49972C10.9857 4.52581 11.2584 7.06051 10.0197 8.39495C9.52889 8.92426 8.87448 9.18518 8.01363 9.19264C8.00584 9.19264 8.00194 9.19264 7.99415 9.19264C7.98636 9.19264 7.98247 9.19264 7.97468 9.19264C7.11772 9.18518 6.45942 8.92426 5.97251 8.39495C4.73771 7.06797 5.00259 4.52209 5.00648 4.49972Z" fill="#949494"/>
<path d="M15.9989 14.7988C15.9989 14.7951 15.9989 14.7914 15.9989 14.7876C15.9989 14.7578 15.995 14.728 15.995 14.6944C15.9716 13.9564 15.921 12.2306 14.2305 11.6789C14.2188 11.6752 14.2032 11.6714 14.1915 11.6677C12.4347 11.2391 10.974 10.2699 10.9584 10.2587C10.7208 10.0984 10.3936 10.1544 10.2261 10.3817C10.0586 10.6091 10.1171 10.9222 10.3547 11.0825C10.4209 11.1272 11.9712 12.1597 13.911 12.6369C14.8186 12.9462 14.9199 13.8744 14.9472 14.7243C14.9472 14.7578 14.9472 14.7876 14.9511 14.8174C14.955 15.1529 14.9316 15.671 14.8693 15.9692C14.2382 16.3122 11.7648 17.4975 8.00193 17.4975C4.25469 17.4975 1.76561 16.3084 1.13069 15.9655C1.06836 15.6673 1.0411 15.1492 1.04889 14.8137C1.04889 14.7839 1.05278 14.7541 1.05278 14.7205C1.08005 13.8707 1.18133 12.9425 2.08892 12.6331C4.02876 12.156 5.57908 11.1198 5.6453 11.0788C5.88291 10.9185 5.94134 10.6054 5.77384 10.378C5.60635 10.1506 5.27914 10.0947 5.04153 10.255C5.02595 10.2662 3.57302 11.2353 1.80846 11.664C1.79288 11.6677 1.7812 11.6714 1.76951 11.6752C0.0789655 12.2306 0.0283271 13.9564 0.00495551 14.6907C0.00495551 14.7243 0.00495542 14.7541 0.00106015 14.7839C0.00106015 14.7876 0.00106015 14.7914 0.00106015 14.7951C-0.00283511 14.9889 -0.00673029 15.9842 0.199719 16.4836C0.238671 16.5805 0.308786 16.6626 0.402272 16.7185C0.51913 16.793 3.31983 18.5002 8.00583 18.5002C12.6918 18.5002 15.4925 16.7893 15.6094 16.7185C15.699 16.6626 15.773 16.5805 15.8119 16.4836C16.0067 15.9879 16.0028 14.9926 15.9989 14.7988Z" fill="#949494"/>
</svg>
