<svg width="53" height="52" viewBox="0 0 53 52" fill="none" xmlns="http://www.w3.org/2000/svg">
<path d="M50.8899 21.8011L42.3073 30.3725L37.4092 25.4719L41.1111 21.8011C41.4057 21.4574 41.3858 20.9454 41.0653 20.6254C40.7453 20.3058 40.2327 20.2859 39.8885 20.5802L36.1782 24.2425L33.7332 21.7922L42.3073 13.2208C42.6434 12.8831 42.6434 12.3377 42.3073 11.9999C41.9691 11.6642 41.423 11.6642 41.0848 11.9999L31.8868 21.1864C31.7225 21.3488 31.6302 21.5703 31.6302 21.8011C31.6302 22.0319 31.7225 22.253 31.8868 22.4158L33.1177 23.6363L31.8868 24.8661C30.4314 23.4114 28.1523 23.1797 26.4337 24.3119L25.7577 23.6363C24.9453 22.8271 23.8447 22.3727 22.6972 22.3722C22.1549 22.3722 21.6169 22.472 21.1106 22.6669L19.6282 21.1864L20.2437 20.5802C20.4079 20.4174 20.5002 20.1963 20.5002 19.9655C20.5002 19.7347 20.4079 19.5131 20.2437 19.3508L11.6353 10.7794C11.2954 10.4421 10.7459 10.4442 10.4085 10.7836C10.0707 11.1231 10.0728 11.6714 10.4128 12.0088L18.3798 19.9655L17.7644 20.5713L13.4297 24.8572L10.3696 21.7922C10.2066 21.6282 9.98522 21.536 9.7541 21.536C9.52297 21.536 9.30116 21.6282 9.13861 21.7922C8.80208 22.13 8.80208 22.6754 9.13861 23.0131L12.2072 26.0781L10.9762 27.2986L9.82309 28.5715L1.85601 20.5802C1.69346 20.4162 1.47165 20.324 1.24053 20.324C1.0094 20.324 0.788009 20.4162 0.625035 20.5802C0.288929 20.918 0.288929 21.4633 0.625035 21.8011L9.2076 30.3725C9.37142 30.5344 9.59282 30.6249 9.82309 30.6236C10.0538 30.6249 10.2752 30.5344 10.439 30.3725L11.6353 29.1516L12.8574 30.3725C11.1654 32.0631 11.1654 34.803 12.8574 36.4936L14.4875 38.0954C14.6501 38.2594 14.8719 38.3516 15.103 38.3516C15.3341 38.3516 15.5555 38.2594 15.7185 38.0954C16.0546 37.7576 16.0546 37.2123 15.7185 36.8745L14.1146 35.2731C13.6248 34.7856 13.3497 34.1236 13.3497 33.4333C13.3497 32.7425 13.6248 32.0804 14.1146 31.5934L14.7216 30.9872L20.8592 24.8572C21.8895 23.8811 23.5048 23.8811 24.5352 24.8572L30.0487 30.3636C30.3434 30.7073 30.3235 31.2193 30.0035 31.5393C29.683 31.8589 29.1704 31.8788 28.8267 31.5845L24.8298 27.5933C24.4878 27.2538 23.9345 27.2555 23.5946 27.5975C23.2547 27.9395 23.2564 28.4916 23.5988 28.8311L27.5953 32.8228C28.3386 33.5706 29.4604 33.7964 30.4352 33.3939C31.4105 32.9915 32.0455 32.0407 32.043 30.9872C32.0421 30.2985 31.7678 29.6382 31.2797 29.1516L27.7083 25.5844C28.7039 25.1337 29.8739 25.3324 30.6642 26.0866L38.0247 33.4375C38.5094 33.9253 38.7807 34.5857 38.7791 35.2731C38.7807 35.9605 38.5094 36.6204 38.0247 37.1083L35.5712 39.5586L33.0572 42.0609L31.2797 43.8445L26.3732 48.7447C26.0349 49.0803 25.4889 49.0803 25.1507 48.7447C24.8145 48.4073 24.8145 47.8619 25.1507 47.5242L30.7078 42C30.9551 41.7886 31.063 41.4563 30.9868 41.1401C30.9106 40.8239 30.6634 40.577 30.3468 40.5009C30.0297 40.4248 29.6974 40.5322 29.4853 40.7795L23.9629 46.2859C23.6191 46.5801 23.1065 46.5603 22.7861 46.2407C22.466 45.9206 22.4461 45.4087 22.7408 45.065L28.2543 39.5586C28.4186 39.3962 28.5109 39.1747 28.5109 38.9439C28.5109 38.7131 28.4186 38.492 28.2543 38.3292C27.9161 37.9935 27.3701 37.9935 27.0318 38.3292L21.5094 43.8445C21.1716 44.1801 20.6255 44.1801 20.2873 43.8445C20.123 43.6817 20.0307 43.4606 20.0307 43.2298C20.0307 42.999 20.123 42.7774 20.2873 42.6151L25.8009 37.1083C25.9651 36.9459 26.0574 36.7244 26.0574 36.4936C26.0574 36.2628 25.9651 36.0417 25.8009 35.8789C25.4626 35.5432 24.9166 35.5432 24.5783 35.8789L19.0563 41.3942C18.7164 41.7311 18.1669 41.7294 17.8295 41.39C17.4917 41.0505 17.4939 40.5017 17.8338 40.1648L24.5005 33.5153C24.8404 33.1758 24.8404 32.6254 24.5005 32.2859C24.1605 31.9464 23.6094 31.9464 23.2695 32.2859L16.5681 38.9612C15.5538 39.9754 15.5538 41.6182 16.5681 42.6324C17.0159 43.089 17.6192 43.3613 18.2584 43.3942C18.3358 44.7124 19.3915 45.7629 20.7118 45.8357C20.7851 47.1576 21.8421 48.2128 23.1653 48.286C23.1903 48.937 23.4595 49.5555 23.9197 50.0176C24.7011 50.7963 25.8897 50.9979 26.8845 50.5198L27.5953 51.2385C28.3255 51.9682 29.4193 52.1973 30.3819 51.8219C31.3441 51.4465 31.9926 50.538 32.0341 49.5069C32.6872 49.487 33.3082 49.2173 33.7679 48.7535C34.2183 48.302 34.4867 47.7013 34.5223 47.065C35.846 46.9923 36.9025 45.9367 36.9758 44.6147C38.0082 44.5737 38.9179 43.9256 39.2938 42.9647C39.6701 42.0034 39.4407 40.9114 38.7096 40.1821L38.0941 39.5759L39.3251 38.3465C40.1353 37.5353 40.5904 36.4361 40.5908 35.29C40.5705 34.4331 40.2958 33.6015 39.8018 32.9006L41.1111 31.5934L41.7265 32.2081C42.0648 32.5438 42.6108 32.5438 42.9491 32.2081L52.1209 23.0216C52.457 22.6842 52.457 22.1385 52.1209 21.8011C51.9583 21.6371 51.7365 21.5449 51.5054 21.5449C51.2743 21.5449 51.0529 21.6371 50.8899 21.8011ZM12.8836 27.9222L18.4061 22.4158L19.6282 23.6363L14.1146 29.1516L12.8836 27.9222ZM30.0487 49.9656C29.7105 50.3012 29.1645 50.3012 28.8267 49.9656L28.2112 49.3509L29.4422 48.13L30.0487 48.7362C30.213 48.8985 30.3053 49.1201 30.3053 49.3509C30.3053 49.5817 30.213 49.8032 30.0487 49.9656ZM32.5022 47.5153C32.164 47.8509 31.618 47.8509 31.2797 47.5153L30.7078 46.9006L31.3233 46.2859L31.9299 45.6797L32.5458 46.2859C32.7097 46.4487 32.8019 46.6698 32.8019 46.9006C32.8019 47.1314 32.7097 47.3529 32.5458 47.5153H32.5022ZM34.9557 45.065C34.6175 45.4006 34.0714 45.4006 33.7332 45.065L33.1177 44.4503L34.3402 43.2298L34.9557 43.8445C35.2918 44.1823 35.2918 44.7276 34.9557 45.065ZM37.4092 42.6151C37.2463 42.7787 37.0249 42.8709 36.7937 42.8709C36.5626 42.8709 36.3408 42.7787 36.1782 42.6151L35.5712 42L36.7764 40.7795L37.3919 41.3942C37.7326 41.7269 37.7407 42.2727 37.4092 42.6151ZM38.6313 31.5934L33.1177 26.0866L34.3402 24.8661L39.8627 30.3725L38.6313 31.5934Z" fill="#FFBB01"/>
<path d="M16.8334 13.8529H35.9014C36.3801 13.8529 36.7682 13.4652 36.7682 12.9871V0.865806C36.7682 0.387668 36.3801 0 35.9014 0H16.8334C16.3547 0 15.9667 0.387668 15.9667 0.865806V12.9871C15.9667 13.4652 16.3547 13.8529 16.8334 13.8529ZM17.7001 10.3897C18.6574 10.3897 19.4336 11.165 19.4336 12.1213H17.7001V10.3897ZM35.0347 12.1213H33.3012C33.3012 11.165 34.0774 10.3897 35.0347 10.3897V12.1213ZM35.0347 3.46322C34.0774 3.46322 33.3012 2.68789 33.3012 1.73161H35.0347V3.46322ZM35.0347 5.19483V8.65806C33.1197 8.65806 31.5678 10.2087 31.5678 12.1213H21.167C21.167 10.2087 19.6147 8.65806 17.7001 8.65806V5.19483C19.6147 5.19483 21.167 3.64416 21.167 1.73161H31.5678C31.5678 3.64416 33.1197 5.19483 35.0347 5.19483ZM17.7001 1.73161H19.4336C19.4336 2.68789 18.6574 3.46322 17.7001 3.46322V1.73161Z" fill="#FFBB01"/>
<path d="M26.3667 10.3896C28.281 10.3896 29.8332 8.83897 29.8332 6.92642C29.8332 5.01387 28.281 3.4632 26.3667 3.4632C24.4519 3.4632 22.9002 5.01387 22.9002 6.92642C22.9002 8.83897 24.4519 10.3896 26.3667 10.3896ZM26.3667 5.19481C27.3239 5.19481 28.0999 5.97014 28.0999 6.92642C28.0999 7.88269 27.3239 8.65803 26.3667 8.65803C25.4095 8.65803 24.6335 7.88269 24.6335 6.92642C24.6335 5.97014 25.4095 5.19481 26.3667 5.19481Z" fill="#FFBB01"/>
<path d="M33.3008 6.92641C33.3008 7.40455 32.9128 7.79222 32.4342 7.79222C31.9556 7.79222 31.5675 7.40455 31.5675 6.92641C31.5675 6.44828 31.9556 6.06061 32.4342 6.06061C32.9128 6.06061 33.3008 6.44828 33.3008 6.92641Z" fill="#FFBB01"/>
<path d="M21.1666 6.92641C21.1666 7.40455 20.7786 7.79222 20.3 7.79222C19.8214 7.79222 19.4334 7.40455 19.4334 6.92641C19.4334 6.44828 19.8214 6.06061 20.3 6.06061C20.7786 6.06061 21.1666 6.44828 21.1666 6.92641Z" fill="#FFBB01"/>
<path d="M52.2219 5.5845L48.755 0.38967C48.5937 0.149967 48.3241 0.00665283 48.0355 0.00665283C47.7469 0.00665283 47.4769 0.149967 47.3161 0.38967L43.8491 5.5845C43.7543 5.72528 43.7031 5.891 43.7019 6.06053V9.52375C43.7019 10.0019 44.0899 10.3896 44.5686 10.3896C45.0472 10.3896 45.4353 10.0019 45.4353 9.52375V6.3201L48.0355 2.42398L50.6357 6.3201V15.5844C50.6357 16.0625 51.0238 16.4502 51.5024 16.4502C51.9811 16.4502 52.3692 16.0625 52.3692 15.5844V6.06053C52.3679 5.891 52.3167 5.72528 52.2219 5.5845Z" fill="#FFBB01"/>
<path d="M48.9021 12.1212V6.92641C48.9021 6.44828 48.5141 6.06061 48.0355 6.06061C47.5569 6.06061 47.1689 6.44828 47.1689 6.92641V12.1212C47.1689 12.5994 47.5569 12.9871 48.0355 12.9871C48.5141 12.9871 48.9021 12.5994 48.9021 12.1212Z" fill="#FFBB01"/>
<path d="M1.23195 7.79219H2.09868V18.1819C2.09868 18.66 2.48676 19.0477 2.96541 19.0477C3.44405 19.0477 3.83213 18.66 3.83213 18.1819V6.92638C3.83213 6.44824 3.44405 6.06058 2.96541 6.06058H2.91335L5.56559 2.35511L8.21783 6.06058H8.16578C7.68713 6.06058 7.29905 6.44824 7.29905 6.92638V8.65799C7.29905 9.13613 7.68713 9.5238 8.16578 9.5238C8.64443 9.5238 9.03251 9.13613 9.03251 8.65799V7.79219H9.89924C10.223 7.79049 10.5188 7.60913 10.6665 7.32124C10.8142 7.03376 10.7888 6.68752 10.6013 6.42415L6.26769 0.363507C6.10434 0.1386 5.84364 0.00543213 5.56559 0.00543213C5.28755 0.00543213 5.02643 0.1386 4.86349 0.363507L0.529846 6.42415C0.341942 6.68752 0.316972 7.03376 0.464672 7.32124C0.612371 7.60913 0.908194 7.79049 1.23195 7.79219Z" fill="#FFBB01"/>
<path d="M5.56491 12.1213V14.7187C5.56491 15.1968 5.95294 15.5845 6.43153 15.5845C6.91012 15.5845 7.29815 15.1968 7.29815 14.7187V12.1213C7.29815 11.6432 6.91012 11.2555 6.43153 11.2555C5.95294 11.2555 5.56491 11.6432 5.56491 12.1213Z" fill="#FFBB01"/>
</svg>
