<svg width="53" height="52" viewBox="0 0 53 52" fill="none" xmlns="http://www.w3.org/2000/svg">
<path d="M44.9187 38.1709L41.7992 41.2385L39.9309 39.3929C39.5854 39.0531 39.0251 39.0531 38.6796 39.3929C38.3341 39.7326 38.3341 40.2835 38.6796 40.6233L41.1735 43.0757C41.3388 43.2398 41.5642 43.3321 41.7992 43.3321C42.0341 43.3321 42.2591 43.2398 42.4248 43.0757L46.2053 39.3929C46.4566 39.1813 46.5663 38.8488 46.4888 38.5323C46.4114 38.2154 46.1601 37.9683 45.8383 37.8921C45.5164 37.8159 45.1782 37.9238 44.9626 38.1709H44.9187Z" fill="#FFBB01"/>
<path d="M46.2062 32.1487V29.4624C46.2062 28.9838 45.8116 28.5958 45.3249 28.5958H42.6809V27.7293C42.6809 26.2937 43.8648 25.1297 45.3249 25.1297C45.8116 25.1297 46.2062 24.7417 46.2062 24.2631C46.2062 23.7846 45.8116 23.3966 45.3249 23.3966C42.8913 23.3966 40.9182 25.3366 40.9182 27.7293V28.5958H38.2742C37.7875 28.5958 37.3929 28.9838 37.3929 29.4624V32.1487C32.8731 34.1856 30.4068 39.043 31.4667 43.8187C32.5271 48.5948 36.8274 52 41.7996 52C46.7713 52 51.0721 48.5948 52.1324 43.8187C53.1924 39.043 50.7261 34.1856 46.2062 32.1487ZM42.6809 50.2593V49.3928C42.6809 48.9142 42.2863 48.5262 41.7996 48.5262C41.3129 48.5262 40.9182 48.9142 40.9182 49.3928V50.2593C36.7155 49.8633 33.389 46.5926 32.9862 42.4605H33.8676C34.3543 42.4605 34.7489 42.0725 34.7489 41.5939C34.7489 41.1154 34.3543 40.7274 33.8676 40.7274H32.9862C33.3185 37.491 35.4658 34.7103 38.5475 33.5264C38.8866 33.3978 39.1104 33.0779 39.1117 32.7204V30.3289H44.3997V32.7204C44.4005 33.0779 44.6243 33.3978 44.9634 33.5264C48.0795 34.6845 50.2652 37.4702 50.6129 40.7274H49.7316C49.2449 40.7274 48.8502 41.1154 48.8502 41.5939C48.8502 42.0725 49.2449 42.4605 49.7316 42.4605H50.6129C50.2101 46.5926 46.8836 49.8633 42.6809 50.2593Z" fill="#FFBB01"/>
<path d="M28.7644 45.0601C28.5793 45.0601 4.78332 45.0601 4.78332 45.0601C3.32318 45.0601 2.13932 43.8961 2.13932 42.4604V14.7312H47.9687V30.7275C47.9687 31.206 48.3633 31.594 48.85 31.594C49.3368 31.594 49.7314 31.206 49.7314 30.7275V8.66539C49.7314 6.27268 47.7583 4.3327 45.3247 4.3327H43.562V3.46616C43.562 2.98761 43.1674 2.59962 42.6807 2.59962C42.194 2.59962 41.7994 2.98761 41.7994 3.46616V6.93232C41.7994 7.8894 41.0101 8.66539 40.0367 8.66539C39.0633 8.66539 38.274 7.8894 38.274 6.93232V3.46616C38.274 2.50907 39.0633 1.73308 40.0367 1.73308C40.5234 1.73308 40.918 1.34508 40.918 0.866539C40.918 0.387996 40.5234 0 40.0367 0C38.0898 0 36.5114 1.55199 36.5114 3.46616V4.3327H28.5793V3.46616C28.5793 2.98761 28.1847 2.59962 27.698 2.59962C27.2113 2.59962 26.8167 2.98761 26.8167 3.46616V6.93232C26.8167 7.8894 26.0274 8.66539 25.054 8.66539C24.0806 8.66539 23.2913 7.8894 23.2913 6.93232V3.46616C23.2913 2.50907 24.0806 1.73308 25.054 1.73308C25.5407 1.73308 25.9353 1.34508 25.9353 0.866539C25.9353 0.387996 25.5407 0 25.054 0C23.1072 0 21.5287 1.55199 21.5287 3.46616V4.3327H13.5967V3.46616C13.5967 2.98761 13.202 2.59962 12.7153 2.59962C12.2286 2.59962 11.834 2.98761 11.834 3.46616V6.93232C11.834 7.8894 11.0448 8.66539 10.0713 8.66539C9.0979 8.66539 8.30866 7.8894 8.30866 6.93232V3.46616C8.30866 2.50907 9.0979 1.73308 10.0713 1.73308C10.558 1.73308 10.9527 1.34508 10.9527 0.866539C10.9527 0.387996 10.558 0 10.0713 0C8.12447 0 6.54599 1.55199 6.54599 3.46616V4.3327H4.78332C2.34975 4.3327 0.376648 6.27268 0.376648 8.66539V42.4604C0.376648 44.8531 2.34975 46.7931 4.78332 46.7931H25.054C29.681 46.7931 29.681 46.7931 29.681 45.9266C29.6823 45.6964 29.5902 45.4747 29.4254 45.3114C29.2507 45.1404 29.011 45.0491 28.7644 45.0601ZM4.78332 6.06578H6.54599V6.93232C6.54599 8.84649 8.12447 10.3985 10.0713 10.3985C12.0182 10.3985 13.5967 8.84649 13.5967 6.93232V6.06578H21.5287V6.93232C21.5287 8.84649 23.1072 10.3985 25.054 10.3985C27.0009 10.3985 28.5793 8.84649 28.5793 6.93232V6.06578H36.5114V6.93232C36.5114 8.84649 38.0898 10.3985 40.0367 10.3985C41.9835 10.3985 43.562 8.84649 43.562 6.93232V6.06578H45.3247C46.7848 6.06578 47.9687 7.22977 47.9687 8.66539V12.9981H2.13932V8.66539C2.13932 7.22977 3.32318 6.06578 4.78332 6.06578Z" fill="#FFBB01"/>
<path d="M16.2409 18.1974C16.2409 17.7188 15.8463 17.3308 15.3596 17.3308H8.30889C7.82217 17.3308 7.42755 17.7188 7.42755 18.1974V25.1297C7.42755 25.6082 7.82217 25.9962 8.30889 25.9962H15.3596C15.8463 25.9962 16.2409 25.6082 16.2409 25.1297V18.1974ZM14.4782 24.2631H9.19022V19.0639H14.4782V24.2631Z" fill="#FFBB01"/>
<path d="M15.3596 31.1955C15.8463 31.1955 16.2409 30.8075 16.2409 30.3289C16.2409 29.8504 15.8463 29.4624 15.3596 29.4624H8.30889C7.82217 29.4624 7.42755 29.8504 7.42755 30.3289V37.2612C7.42755 37.7398 7.82217 38.1278 8.30889 38.1278H15.3596C15.8463 38.1278 16.2409 37.7398 16.2409 37.2612V33.7951C16.2409 33.3166 15.8463 32.9286 15.3596 32.9286C14.8728 32.9286 14.4782 33.3166 14.4782 33.7951V36.3947H9.19022V31.1955H15.3596Z" fill="#FFBB01"/>
<path d="M20.6476 29.4624C20.1609 29.4624 19.7663 29.8504 19.7663 30.3289V37.2612C19.7663 37.7398 20.1609 38.1278 20.6476 38.1278H27.6983C28.185 38.1278 28.5796 37.7398 28.5796 37.2612V30.3289C28.5796 29.8504 28.185 29.4624 27.6983 29.4624H20.6476ZM26.817 36.3947H21.529V31.1955H26.817V36.3947Z" fill="#FFBB01"/>
<path d="M40.0369 24.2631C40.5236 24.2631 40.9182 23.8751 40.9182 23.3966V18.1974C40.9182 17.7188 40.5236 17.3308 40.0369 17.3308H32.9863C32.4995 17.3308 32.1049 17.7188 32.1049 18.1974V25.1297C32.1049 25.6082 32.4995 25.9962 32.9863 25.9962C33.473 25.9962 33.8676 25.6082 33.8676 25.1297V19.0639H39.1556V23.3966C39.1556 23.8751 39.5502 24.2631 40.0369 24.2631Z" fill="#FFBB01"/>
<path d="M28.324 17.5822C28.1583 17.418 27.9333 17.3257 27.6983 17.3257C27.4633 17.3257 27.2378 17.418 27.0726 17.5822L24.173 20.4416L21.2733 17.5822C20.9278 17.2424 20.3675 17.2424 20.0219 17.5822C19.6764 17.9219 19.6764 18.4728 20.0219 18.8126L22.9302 21.6635L20.0219 24.5145C19.855 24.6769 19.7611 24.8987 19.7611 25.1297C19.7611 25.3607 19.855 25.5824 20.0219 25.7449C20.1872 25.9091 20.4127 26.0013 20.6476 26.0013C20.8826 26.0013 21.1077 25.9091 21.2733 25.7449L24.173 22.8855L27.0726 25.7449C27.2378 25.9091 27.4633 26.0013 27.6983 26.0013C27.9333 26.0013 28.1583 25.9091 28.324 25.7449C28.491 25.5824 28.5848 25.3607 28.5848 25.1297C28.5848 24.8987 28.491 24.6769 28.324 24.5145L25.4158 21.6635L28.324 18.8126C28.491 18.6501 28.5848 18.4284 28.5848 18.1974C28.5848 17.9663 28.491 17.7446 28.324 17.5822Z" fill="#FFBB01"/>
</svg>
