<svg width="20" height="20" viewBox="0 0 20 20" fill="none" xmlns="http://www.w3.org/2000/svg">
<path d="M2.92975 20H9.45319V12.8906H7.10944V10.5469H9.45319V7.61719C9.45319 6.00174 10.7674 4.6875 12.3829 4.6875H15.3126V7.03125H12.9688C12.3226 7.03125 11.7969 7.55692 11.7969 8.20312V10.5469H15.2068L14.8162 12.8906H11.7969V20H17.0704C18.6858 20 20.0001 18.6858 20.0001 17.0703V2.92969C20.0001 1.31424 18.6858 0 17.0704 0H2.92975C1.3143 0 6.10352e-05 1.31424 6.10352e-05 2.92969V17.0703C6.10352e-05 18.6858 1.3143 20 2.92975 20ZM1.17194 2.92969C1.17194 1.96045 1.96051 1.17188 2.92975 1.17188H17.0704C18.0396 1.17188 18.8282 1.96045 18.8282 2.92969V17.0703C18.8282 18.0396 18.0396 18.8281 17.0704 18.8281H12.9688V14.0625H15.8089L16.5902 9.375H12.9688V8.20312H16.4844V3.51562H12.3829C10.1212 3.51562 8.28131 5.35553 8.28131 7.61719V9.375H5.93756V14.0625H8.28131V18.8281H2.92975C1.96051 18.8281 1.17194 18.0396 1.17194 17.0703V2.92969Z" fill="white"/>
</svg>
