<svg width="20" height="20" viewBox="0 0 20 20" fill="none" xmlns="http://www.w3.org/2000/svg">
<path d="M2.92975 20H17.0704C18.6858 20 20.0001 18.6858 20.0001 17.0703V2.92969C20.0001 1.31424 18.6858 0 17.0704 0H2.92975C1.3143 0 6.10352e-05 1.31424 6.10352e-05 2.92969V17.0703C6.10352e-05 18.6858 1.3143 20 2.92975 20ZM1.17194 2.92969C1.17194 1.96045 1.96051 1.17188 2.92975 1.17188H17.0704C18.0396 1.17188 18.8282 1.96045 18.8282 2.92969V17.0703C18.8282 18.0396 18.0396 18.8281 17.0704 18.8281H2.92975C1.96051 18.8281 1.17194 18.0396 1.17194 17.0703V2.92969Z" fill="white"/>
<path d="M10.0001 15.2733C12.9078 15.2733 15.2735 12.9076 15.2735 9.99987C15.2735 7.09216 12.9078 4.72644 10.0001 4.72644C7.09235 4.72644 4.72662 7.09216 4.72662 9.99987C4.72662 12.9076 7.09235 15.2733 10.0001 15.2733ZM10.0001 5.89831C12.2617 5.89831 14.1016 7.73822 14.1016 9.99987C14.1016 12.2615 12.2617 14.1014 10.0001 14.1014C7.7384 14.1014 5.8985 12.2615 5.8985 9.99987C5.8985 7.73822 7.7384 5.89831 10.0001 5.89831Z" fill="white"/>
<path d="M15.5264 5.61373C16.4841 5.61373 17.2632 4.83461 17.2632 3.87699C17.2632 2.91938 16.4841 2.14026 15.5264 2.14026C14.5688 2.14026 13.7896 2.91938 13.7896 3.87699C13.7896 4.83461 14.5688 5.61373 15.5264 5.61373ZM15.5264 3.29808C15.8456 3.29808 16.1054 3.55784 16.1054 3.87699C16.1054 4.19615 15.8456 4.45591 15.5264 4.45591C15.2073 4.45591 14.9475 4.19615 14.9475 3.87699C14.9475 3.55784 15.2073 3.29808 15.5264 3.29808Z" fill="white"/>
</svg>
