<svg width="52" height="52" viewBox="0 0 52 52" fill="none" xmlns="http://www.w3.org/2000/svg">
<path d="M51.9011 12.3195C51.7221 11.6538 51.2854 11.0863 50.688 10.7423C50.0901 10.3966 49.3792 10.303 48.7123 10.482C48.0463 10.6615 47.4788 11.0978 47.1348 11.6953L46.7015 12.4494C46.2898 12.2128 45.7638 12.3521 45.5231 12.7617L43.3219 16.514L42.5678 16.0807C42.3681 15.9651 42.1303 15.9338 41.9077 15.9939C41.6847 16.0544 41.4952 16.2009 41.3805 16.4014C41.1457 16.8157 41.2887 17.3422 41.7013 17.58L42.4553 18.0133L35.0892 30.7793L33.2693 35.6416L32.4027 37.262C31.8953 38.1447 31.9495 39.242 32.5415 40.0702L30.5916 42.462L30.0458 41.093C29.7995 40.4828 29.2295 40.0647 28.5741 40.0135C27.9182 39.9618 27.2899 40.286 26.9518 40.8501L26.6399 41.3786L26.3454 37.912C26.2777 37.0918 25.6426 36.4325 24.8259 36.3335C24.0088 36.2349 23.2353 36.7245 22.9742 37.5049L20.8424 43.9008C20.6935 44.3531 20.9372 44.8406 21.3883 44.993C21.4729 45.0323 21.5639 45.056 21.657 45.062C22.0294 45.0632 22.3611 44.8258 22.4804 44.4729L24.6033 38.077L24.9067 41.5953C24.9693 42.346 25.5089 42.9702 26.2426 43.1403C26.9763 43.3104 27.7354 42.9871 28.1218 42.3409L28.4425 41.812L28.9799 43.1729C29.208 43.7463 29.7238 44.1555 30.3344 44.2465C30.945 44.3375 31.5577 44.0967 31.9436 43.6147L33.9628 41.0583C34.1862 41.1167 34.4164 41.1459 34.6475 41.145C35.5763 41.1522 36.4386 40.663 36.9092 39.862L37.7758 38.4147L41.0775 34.4021L48.5215 21.48L49.2755 21.9133C49.4765 22.0284 49.6229 22.2184 49.6826 22.4423C49.7427 22.6645 49.7113 22.9014 49.5962 23.1008L46.1299 29.1069C45.9991 29.3041 45.9547 29.5462 46.0072 29.7772C46.0596 30.0079 46.2039 30.2072 46.407 30.3286C46.6067 30.4446 46.8445 30.4759 47.0671 30.4158C47.2901 30.3553 47.4797 30.2089 47.5944 30.0083L51.0607 24.0021C51.4064 23.4042 51.5 22.6932 51.3206 22.0263C51.1411 21.3602 50.7049 20.7928 50.1074 20.4487L49.3534 20.0154L51.5198 16.2626C51.7564 15.8509 51.6172 15.3253 51.208 15.0841L51.6413 14.33C51.9963 13.7227 52.0902 12.9974 51.9011 12.3195ZM48.634 12.562C48.7487 12.3614 48.9391 12.2145 49.1629 12.1549C49.3855 12.0998 49.6208 12.1307 49.8214 12.2416C50.0223 12.3563 50.1688 12.5467 50.2288 12.7702C50.2839 12.9928 50.253 13.228 50.1421 13.4286L49.7088 14.1827L48.2007 13.3161L48.634 12.562ZM36.8224 36.7596L36.3891 36.5083L35.1066 35.7626L36.3371 32.4695L39.0668 34.0467L36.8224 36.7596ZM34.2226 39.264C33.8566 39.0088 33.7441 38.5179 33.9628 38.1286L34.3961 37.3749L35.9038 38.2416L35.4705 38.9868C35.349 39.1976 35.1451 39.3474 34.9077 39.4003C34.6703 39.4527 34.4219 39.4037 34.2226 39.264ZM40.0548 32.6256L37.0564 30.8923L43.9892 18.88L46.9876 20.6133L40.0548 32.6256ZM47.8542 19.114L44.8558 17.3807L46.589 14.382L49.5874 16.1154L47.8542 19.114Z" fill="#FFBB01"/>
<path d="M13.6708 38.8353L10.6038 41.8949L8.76673 40.0575C8.42868 39.7215 7.88289 39.7215 7.54484 40.0575C7.38069 40.2204 7.28845 40.4417 7.28845 40.6728C7.28845 40.9038 7.38069 41.1256 7.54484 41.2881L9.3819 43.1255C9.70683 43.448 10.146 43.6286 10.6038 43.6282C11.0641 43.6308 11.5071 43.4501 11.8341 43.1255L14.8926 40.0575C15.1871 39.7134 15.1672 39.201 14.8474 38.881C14.5271 38.5607 14.0147 38.5408 13.6708 38.8353Z" fill="#FFBB01"/>
<path d="M3.46271 41.1667C3.46271 45.2355 6.76068 48.5333 10.8288 48.5333C14.8969 48.5333 18.1948 45.2355 18.1948 41.1667C18.1948 40.6881 17.8068 40.3 17.3282 40.3C16.8497 40.3 16.4616 40.6881 16.4616 41.1667C16.4616 44.2779 13.9397 46.8 10.8288 46.8C7.71783 46.8 5.1959 44.2779 5.1959 41.1667C5.1959 38.0555 7.71783 35.5333 10.8288 35.5333C12.0483 35.5299 13.2352 35.9256 14.2084 36.6603C14.5914 36.9476 15.1347 36.8697 15.4216 36.4867C15.7089 36.1038 15.6314 35.5608 15.2485 35.2735C13.0164 33.5994 10.0299 33.3303 7.53461 34.5778C5.03891 35.8257 3.46271 38.3767 3.46271 41.1667Z" fill="#FFBB01"/>
<path d="M31.1943 6.93328C31.6728 6.93328 32.0608 6.54565 32.0608 6.06662C32.0608 5.588 31.6728 5.19995 31.1943 5.19995H8.66274C8.18416 5.19995 7.79614 5.588 7.79614 6.06662V9.53328C7.79614 10.0123 8.18416 10.4 8.66274 10.4H31.1943C31.6728 10.4 32.0608 10.0123 32.0608 9.53328C32.0608 9.05467 31.6728 8.66662 31.1943 8.66662H9.52934V6.93328H31.1943Z" fill="#FFBB01"/>
<path d="M11.2626 12.1334C10.784 12.1334 10.396 12.5214 10.396 13C10.396 13.4791 10.784 13.8667 11.2626 13.8667H28.5945C29.0731 13.8667 29.4611 13.4791 29.4611 13C29.4611 12.5214 29.0731 12.1334 28.5945 12.1334H11.2626Z" fill="#FFBB01"/>
<path d="M33.7941 18.2H14.729C14.2504 18.2 13.8624 18.588 13.8624 19.0666C13.8624 19.5457 14.2504 19.9333 14.729 19.9333H33.7941C34.2727 19.9333 34.6607 19.5457 34.6607 19.0666C34.6607 18.588 34.2727 18.2 33.7941 18.2Z" fill="#FFBB01"/>
<path d="M25.1272 24.2667C25.1272 23.7881 24.7392 23.4 24.2607 23.4H6.92873C6.45016 23.4 6.06213 23.7881 6.06213 24.2667C6.06213 24.7457 6.45016 25.1334 6.92873 25.1334H24.2607C24.7392 25.1334 25.1272 24.7457 25.1272 24.2667Z" fill="#FFBB01"/>
<path d="M33.7932 23.4H27.7278C27.2493 23.4 26.8613 23.7881 26.8613 24.2667C26.8613 24.7457 27.2493 25.1334 27.7278 25.1334H33.7932C34.2717 25.1334 34.6597 24.7457 34.6597 24.2667C34.6597 23.7881 34.2717 23.4 33.7932 23.4Z" fill="#FFBB01"/>
<path d="M15.5947 29.4667C16.0733 29.4667 16.4613 29.079 16.4613 28.6C16.4613 28.1214 16.0733 27.7333 15.5947 27.7333H6.92873C6.45016 27.7333 6.06213 28.1214 6.06213 28.6C6.06213 29.079 6.45016 29.4667 6.92873 29.4667H15.5947Z" fill="#FFBB01"/>
<path d="M19.0618 29.4667H25.1272C25.6057 29.4667 25.9937 29.079 25.9937 28.6C25.9937 28.1214 25.6057 27.7333 25.1272 27.7333H19.0618C18.5833 27.7333 18.1953 28.1214 18.1953 28.6C18.1953 29.079 18.5833 29.4667 19.0618 29.4667Z" fill="#FFBB01"/>
<path d="M38.9935 39.8667C38.515 39.8667 38.1269 40.2547 38.1269 40.7333V49.4C38.1269 49.879 37.7389 50.2667 37.2603 50.2667H2.59649C2.11792 50.2667 1.7299 49.879 1.7299 49.4V2.6C1.7299 2.12139 2.11792 1.73333 2.59649 1.73333H37.2603C37.7389 1.73333 38.1269 2.12139 38.1269 2.6V18.8762C38.1269 19.3549 38.515 19.7429 38.9935 19.7429C39.4721 19.7429 39.8601 19.3549 39.8601 18.8762V2.6C39.8601 1.16416 38.6961 0 37.2603 0H2.59649C1.16077 0 -0.0032959 1.16416 -0.0032959 2.6V49.4C-0.0032959 50.8363 1.16077 52 2.59649 52H37.2603C38.6961 52 39.8601 50.8363 39.8601 49.4V40.7333C39.8601 40.2547 39.4721 39.8667 38.9935 39.8667Z" fill="#FFBB01"/>
</svg>
