<svg width="53" height="52" viewBox="0 0 53 52" fill="none" xmlns="http://www.w3.org/2000/svg">
<path d="M50.2992 37.0587V34.6665H51.1658C51.4049 34.6682 51.6338 34.5709 51.7984 34.3978C51.9456 34.2332 52.029 34.0208 52.0324 33.7999L50.4812 4.33332C50.3335 1.9483 48.3558 0.0892944 45.9664 0.0892944C43.577 0.0892944 41.5993 1.9483 41.4516 4.33332L39.9005 33.7999C39.8933 34.036 39.977 34.2654 40.1344 34.4414C40.3062 34.5984 40.5343 34.6796 40.767 34.6665H41.6336V37.0587L39.9957 40.3434C39.8721 40.5884 39.8721 40.8779 39.9957 41.1233L45.195 51.5233C45.2374 51.6189 45.2996 51.7044 45.377 51.7747C45.4781 51.8682 45.6 51.9367 45.7324 51.974H46.2089C46.3417 51.9367 46.4636 51.8682 46.5643 51.7747C46.6421 51.7044 46.7039 51.6189 46.7462 51.5233L51.9456 41.1233C52.0692 40.8779 52.0692 40.5884 51.9456 40.3434L50.2992 37.0587ZM41.6767 32.9332L42.0411 25.9999H49.8918L50.2992 32.9332H41.6767ZM43.1848 4.37691C43.1848 2.84036 44.43 1.59453 45.9664 1.59453C47.5028 1.59453 48.7481 2.84036 48.7481 4.37691L49.7966 24.3102H42.1363L42.2315 22.5768H47.0581C47.5371 22.5768 47.9246 22.1888 47.9246 21.7102C47.9246 21.2311 47.5371 20.8435 47.0581 20.8435H42.3182L43.1848 4.37691ZM48.5661 34.6665V36.3998H43.3667V34.6665H48.5661ZM46.833 47.4587V41.5998H47.6995C48.1781 41.5998 48.5661 41.2118 48.5661 40.7332C48.5661 40.2546 48.1781 39.8665 47.6995 39.8665H44.2333C43.7547 39.8665 43.3667 40.2546 43.3667 40.7332C43.3667 41.2118 43.7547 41.5998 44.2333 41.5998H45.0998V47.4587L41.7377 40.7332L43.0375 38.1332H48.8953L50.1952 40.7332L46.833 47.4587Z" fill="#FFBB01"/>
<path d="M29.5008 11.2666C29.9794 11.2666 30.3674 10.8786 30.3674 10.4C30.3674 9.92138 29.9794 9.53333 29.5008 9.53333H6.97014C6.49158 9.53333 6.10358 9.92138 6.10358 10.4V13.8666C6.10358 14.3452 6.49158 14.7333 6.97014 14.7333H29.5008C29.9794 14.7333 30.3674 14.3452 30.3674 13.8666C30.3674 13.388 29.9794 13 29.5008 13H7.83671V11.2666H29.5008Z" fill="#FFBB01"/>
<path d="M30.3683 19.0666C30.3683 18.588 29.9803 18.1999 29.5017 18.1999H10.4372C9.95869 18.1999 9.57068 18.588 9.57068 19.0666C9.57068 19.5452 9.95869 19.9333 10.4372 19.9333H29.5017C29.9803 19.9333 30.3683 19.5452 30.3683 19.0666Z" fill="#FFBB01"/>
<path d="M5.23712 23.3999C5.23712 23.8785 5.62513 24.2665 6.10369 24.2665H19.9687C20.4473 24.2665 20.8353 23.8785 20.8353 23.3999C20.8353 22.9213 20.4473 22.5332 19.9687 22.5332H6.10369C5.62513 22.5332 5.23712 22.9213 5.23712 23.3999Z" fill="#FFBB01"/>
<path d="M25.1688 22.5332C24.6903 22.5332 24.3024 22.9213 24.3024 23.3999C24.3024 23.8785 24.6903 24.2665 25.1688 24.2665H28.6347C29.1132 24.2665 29.5011 23.8785 29.5011 23.3999C29.5011 22.9213 29.1132 22.5332 28.6347 22.5332H25.1688Z" fill="#FFBB01"/>
<path d="M17.369 27.7332C17.369 27.2546 16.981 26.8665 16.5025 26.8665H6.10369C5.62513 26.8665 5.23712 27.2546 5.23712 27.7332C5.23712 28.2118 5.62513 28.5998 6.10369 28.5998H16.5025C16.981 28.5998 17.369 28.2118 17.369 27.7332Z" fill="#FFBB01"/>
<path d="M16.5025 32.0666C16.5025 31.588 16.1145 31.1999 15.6359 31.1999H6.10369C5.62513 31.1999 5.23712 31.588 5.23712 32.0666C5.23712 32.5452 5.62513 32.9332 6.10369 32.9332H15.6359C16.1145 32.9332 16.5025 32.5452 16.5025 32.0666Z" fill="#FFBB01"/>
<path d="M6.10358 35.5332C5.62508 35.5332 5.23712 35.9213 5.23712 36.3999C5.23712 36.8785 5.62508 37.2665 6.10358 37.2665H12.1688C12.6473 37.2665 13.0352 36.8785 13.0352 36.3999C13.0352 35.9213 12.6473 35.5332 12.1688 35.5332H6.10358Z" fill="#FFBB01"/>
<path d="M33.8344 0H2.63803C1.20235 0 0.0383301 1.16416 0.0383301 2.59999V42.4665C0.0383301 43.9023 1.20235 45.0665 2.63803 45.0665H17.3696C17.8482 45.0665 18.2362 44.6784 18.2362 44.1998C18.2362 43.7212 17.8482 43.3331 17.3696 43.3331H2.63803C2.15947 43.3331 1.77146 42.9451 1.77146 42.4665V7.79997H34.701V42.4665C34.701 42.9451 34.313 43.3331 33.8344 43.3331H31.2347C30.7561 43.3331 30.3681 43.7212 30.3681 44.1998C30.3681 44.6784 30.7561 45.0665 31.2347 45.0665H33.8344C35.2701 45.0665 36.4341 43.9023 36.4341 42.4665V2.59999C36.4341 1.16416 35.2701 0 33.8344 0ZM1.77146 6.06664V2.59999C1.77146 2.12138 2.15947 1.73333 2.63803 1.73333H33.8344C34.313 1.73333 34.701 2.12138 34.701 2.59999V6.06664H1.77146Z" fill="#FFBB01"/>
<path d="M24.3019 32.0665C22.8665 32.0665 21.7026 33.2306 21.7026 34.6665C21.7026 36.1023 22.8665 37.2665 24.3019 37.2665C25.7374 37.2665 26.9013 36.1023 26.9013 34.6665C26.9013 33.2306 25.7374 32.0665 24.3019 32.0665ZM24.3019 35.5331C23.8234 35.5331 23.4355 35.1451 23.4355 34.6665C23.4355 34.1878 23.8234 33.7998 24.3019 33.7998C24.7804 33.7998 25.1684 34.1878 25.1684 34.6665C25.1684 35.1451 24.7804 35.5331 24.3019 35.5331Z" fill="#FFBB01"/>
<path d="M31.2348 34.6665C31.2335 33.7033 30.7004 32.8193 29.8482 32.3699C30.1317 31.4491 29.8829 30.4474 29.2021 29.7661C28.5209 29.0852 27.5193 28.8364 26.5986 29.1199C26.1475 28.2702 25.2645 27.7387 24.3023 27.7387C23.3401 27.7387 22.457 28.2702 22.006 29.1199C21.0852 28.8364 20.0837 29.0852 19.4025 29.7661C18.7216 30.4474 18.4728 31.4491 18.7563 32.3699C17.9063 32.821 17.3752 33.7042 17.3752 34.6665C17.3752 35.6288 17.9063 36.5124 18.7563 36.9631C18.4728 37.8818 18.7195 38.8817 19.3974 39.563C19.5666 39.7319 19.7591 39.8749 19.9694 39.9879V51.1331C19.9711 51.4831 20.1831 51.7975 20.5068 51.9304C20.8292 52.0662 21.202 51.9943 21.4512 51.7484L24.3023 48.8886L27.1533 51.7484C27.3166 51.9109 27.5384 52.001 27.7685 51.9998C27.8824 52.0027 27.9949 51.979 28.0977 51.9304C28.4214 51.7975 28.6334 51.4831 28.6351 51.1331V39.9964C28.8454 39.8834 29.0379 39.7404 29.2072 39.5719C29.885 38.8902 30.1317 37.8907 29.8482 36.9719C30.7029 36.5208 31.2369 35.633 31.2348 34.6665ZM24.9175 47.0511C24.755 46.8869 24.5333 46.7947 24.3023 46.7947C24.0712 46.7947 23.8495 46.8869 23.687 47.0511L21.7026 49.0443V40.2913L22.006 40.213C22.457 41.0632 23.3401 41.5943 24.3023 41.5943C25.2645 41.5943 26.1475 41.0632 26.5986 40.213L26.902 40.2913V49.0443L24.9175 47.0511ZM28.6351 35.5331H28.4879C28.135 35.5315 27.8159 35.7439 27.6818 36.0706C27.5485 36.3952 27.6238 36.768 27.8726 37.0151L27.9767 37.1192C28.3127 37.4573 28.3127 38.0032 27.9767 38.3413C27.8811 38.4416 27.7618 38.5161 27.6298 38.558H27.4999C27.2269 38.6003 26.9502 38.5102 26.7547 38.3151L26.6506 38.211C26.4027 37.9613 26.0282 37.886 25.7032 38.021C25.3779 38.156 25.1667 38.4746 25.1688 38.8267V38.9998C25.1688 39.4784 24.7808 39.8665 24.3023 39.8665C23.8237 39.8665 23.4357 39.4784 23.4357 38.9998V38.8525C23.4374 38.4996 23.225 38.1805 22.8983 38.0464C22.7938 38.0049 22.6817 37.9846 22.5691 37.9859C22.339 37.9846 22.1172 38.0752 21.9539 38.2372L21.8498 38.3413C21.6543 38.5364 21.3776 38.6266 21.1047 38.5838H20.9748C20.8428 38.5423 20.7235 38.4679 20.6278 38.3672C20.2919 38.029 20.2919 37.4831 20.6278 37.145L20.7408 37.0413C20.9896 36.7938 21.0649 36.421 20.9312 36.0964C20.7971 35.7701 20.4785 35.5573 20.1256 35.5594H19.9694C19.4909 35.5594 19.1029 35.1713 19.1029 34.6927C19.1029 34.2137 19.4909 33.8261 19.9694 33.8261H20.1167C20.4696 33.8278 20.7886 33.6149 20.9227 33.2886C21.056 32.964 20.9807 32.5912 20.7319 32.3437L20.6278 32.24C20.2881 31.9023 20.2864 31.3534 20.6236 31.0136C20.9613 30.6738 21.5101 30.6717 21.8498 31.0094L21.9539 31.122C22.201 31.3708 22.5742 31.4461 22.8983 31.3124C23.225 31.1782 23.4374 30.8596 23.4357 30.5067V30.3332C23.4357 29.8546 23.8237 29.4665 24.3023 29.4665C24.7808 29.4665 25.1688 29.8546 25.1688 30.3332V30.4804C25.1671 30.8338 25.3796 31.1524 25.7062 31.2866C26.0303 31.4199 26.4035 31.345 26.6506 31.0957L26.7547 30.9921C27.092 30.6522 27.6412 30.6501 27.9809 30.9874C28.3207 31.3251 28.3224 31.8739 27.9852 32.2138L27.8726 32.3179C27.6238 32.565 27.5485 32.9382 27.6818 33.2624C27.8159 33.5891 28.135 33.8015 28.4879 33.7998H28.6351C29.1137 33.7998 29.5017 34.1879 29.5017 34.6665C29.5017 35.1451 29.1137 35.5331 28.6351 35.5331Z" fill="#FFBB01"/>
</svg>
