<svg width="20" height="16" viewBox="0 0 20 16" fill="none" xmlns="http://www.w3.org/2000/svg">
<path d="M20.0001 2.13681C18.742 2.19348 18.7694 2.18886 18.6272 2.20049L19.3723 0.120645C19.3723 0.120645 17.0466 0.95691 16.457 1.1065C14.9085 -0.253862 12.6068 -0.313968 10.9613 0.674576C9.61383 1.48429 8.89056 2.87479 9.1318 4.50004C6.50927 4.14432 4.29963 2.92922 2.55509 0.880846L2.00333 0.233102L1.59104 0.973167C1.06995 1.90832 0.896914 2.97755 1.10367 3.98384C1.18851 4.39668 1.33271 4.79042 1.53244 5.15912L1.05912 4.97984L1.00296 5.75287C0.946048 6.53812 1.21354 7.45478 1.7186 8.20469C1.86082 8.41588 2.04392 8.6478 2.27601 8.87659L2.03141 8.8399L2.32987 9.72569C2.72218 10.8895 3.537 11.7899 4.59444 12.2904C3.53837 12.7285 2.68525 13.008 1.28296 13.4588L0 13.8711L1.185 14.5043C1.63682 14.7458 3.23335 15.5522 4.81081 15.7942C8.31729 16.3317 12.2652 15.8939 14.923 13.5543C17.1616 11.5836 17.8962 8.78039 17.7436 5.86324C17.7205 5.42161 17.8443 5.00012 18.0921 4.67663C18.5885 4.02888 19.997 2.14113 20.0001 2.13681ZM17.1551 3.99055C16.7435 4.52763 16.5374 5.21355 16.5743 5.9217C16.7283 8.86421 15.9092 11.1462 14.1396 12.7038C12.0725 14.5236 8.73828 15.2378 4.99223 14.6635C4.31383 14.5595 3.61268 14.3267 3.03239 14.0942C4.20808 13.6988 5.11598 13.3464 6.5822 12.668L8.62902 11.7211L6.36919 11.5797C5.28673 11.512 4.38539 10.9992 3.83134 10.1667C4.12553 10.15 4.40919 10.1035 4.69163 10.0265L6.84694 9.43977L4.67363 8.91955C3.61756 8.66674 3.0156 8.04913 2.69654 7.57544C2.48704 7.26417 2.35017 6.94529 2.26807 6.65133C2.48597 6.70845 2.74003 6.74917 3.14973 6.78884L5.1613 6.98333L3.56752 5.76808C2.41914 4.89259 1.95893 3.57727 2.2963 2.3128C5.8803 5.94631 10.0884 5.67322 10.512 5.76927C10.4187 4.88409 10.4163 4.882 10.3919 4.79773C9.84943 2.92341 11.0382 1.9717 11.5744 1.64955C12.6944 0.976747 14.4722 0.875327 15.7036 1.98378C15.9696 2.22302 16.3292 2.31713 16.6659 2.23539C16.968 2.16201 17.2159 2.08431 17.4587 1.99974L16.9533 3.41037L17.5985 3.41082C17.4767 3.57041 17.3307 3.76146 17.1551 3.99055Z" fill="white"/>
</svg>
